<svg xmlns="http://www.w3.org/2000/svg" viewBox="0 0 268.84 169.12"><defs><style>.cls-1{fill:#fff;}</style></defs><g id="Слой_2" data-name="Слой 2"><g id="Слой_1-2" data-name="Слой 1"><path class="cls-1" d="M44.8,76.3V68.68H75.21V53.41H23.65v42H89.27V76.3ZM23.65,26.73V45.79H89.27V26.73Z"/><path class="cls-1" d="M172.61,26.73H147.07L134.12,44,121.21,26.73H95.67L121.37,61,95.67,95.36h25.54l12.91-17.28,12.95,17.28h25.54L146.91,61Z"/><path class="cls-1" d="M236.27,34.26a29.27,29.27,0,0,0-20.22-7.53H179V95.36h21.15V78.17h15.89a29.27,29.27,0,0,0,20.22-7.53q8.35-7.53,8.35-18.19T236.27,34.26Zm-15,22.89a7.41,7.41,0,0,1-5.24,2H200.16V45.79h15.89a7.41,7.41,0,0,1,5.24,2,6.12,6.12,0,0,1,2.18,4.7A6,6,0,0,1,221.29,57.15Z"/><polygon class="cls-1" points="268.84 169.12 214.74 169.12 214.74 155.75 255.47 155.75 255.47 13.37 0 13.37 0 0 268.84 0 268.84 169.12"/><polygon class="cls-1" points="60.51 169.12 0.33 169.12 0.33 122.6 13.71 122.6 13.71 155.75 60.51 155.75 60.51 169.12"/><path class="cls-1" d="M33.19,138.42V109.73H23.61V147h23.1v-8.57Z"/><path class="cls-1" d="M98.71,109.25H94.62L77.85,145.6V147h9.31l2.19-4.69,3.08-8.14,4.21-9.79,4.31,9.79H96.32l-2.78,8.14H104l2.18,4.69h9.31V145.6Z"/><path class="cls-1" d="M184.2,125.75H166.58V134h7.93c-1.7,3.57-4.15,4.58-8,4.58-5.65,0-9.27-4.05-9.27-10.22,0-5.69,3.25-10.38,9.27-10.38,3.77,0,6.22,1.28,7.77,4.47h9.36c-1.81-9.26-9.63-13.14-17.13-13.2-9.48,0-19.06,6.39-19.11,19.11s9.63,19,19.11,19c6.86,0,13.94-3,16.6-10.75C184.41,133,184.41,129.48,184.2,125.75Z"/><path class="cls-1" d="M230.51,138.53V132h12.66v-8.46H230.51v-5.27h13.78v-8.52H221V147h23.74v-8.46Z"/></g></g></svg>